<?xml version="1.0" encoding="utf-8"?>
<!-- Generator: Adobe Illustrator 23.0.3, SVG Export Plug-In . SVG Version: 6.00 Build 0)  -->
<svg version="1.1" id="Icons" xmlns="http://www.w3.org/2000/svg" xmlns:xlink="http://www.w3.org/1999/xlink" x="0px" y="0px"
	 viewBox="0 0 32 32" style="enable-background:new 0 0 32 32;" xml:space="preserve">
<style type="text/css">
	.st0{fill:none;stroke:#000000;stroke-width:2;stroke-linecap:round;stroke-linejoin:round;stroke-miterlimit:10;}
</style>
<g>
	<path d="M29,8h-6c-1.7,0-3,1.3-3,3v16c0,1.7,1.3,3,3,3h6c1.7,0,3-1.3,3-3V11C32,9.3,30.7,8,29,8z M30,27c0,0.6-0.4,1-1,1h-6
		c-0.6,0-1-0.4-1-1V11c0-0.6,0.4-1,1-1v0.3c0,1.5,1.2,2.7,2.7,2.7h0.6c1.5,0,2.7-1.2,2.7-2.7V10c0.6,0,1,0.4,1,1V27z"/>
	<path d="M28,24h-4c-0.6,0-1,0.4-1,1s0.4,1,1,1h4c0.6,0,1-0.4,1-1S28.6,24,28,24z"/>
	<path d="M18,26H9.5c0,0.1,0,0.2-0.1,0.2C9.1,27.3,8.1,28,7,28c-0.6,0-1,0.4-1,1s0.4,1,1,1h12c-0.6-0.8-1-1.9-1-3V26z"/>
	<path d="M28,6c0-1.7-1.3-3-3-3H3C1.3,3,0,4.3,0,6v15c0,1.7,1.3,3,3,3h6.9H18V11c0-2.8,2.2-5,5-5H28z"/>
</g>
</svg>
